<?xml version="1.0" encoding="UTF-8"?>
<!DOCTYPE svg PUBLIC "-//W3C//DTD SVG 1.1//EN" "http://www.w3.org/Graphics/SVG/1.1/DTD/svg11.dtd">
<svg xmlns="http://www.w3.org/2000/svg" version="1.1" width="512px" height="512px" style="shape-rendering:geometricPrecision; text-rendering:geometricPrecision; image-rendering:optimizeQuality; fill-rule:evenodd; clip-rule:evenodd" xmlns:xlink="http://www.w3.org/1999/xlink">
<g><path style="opacity:0.996" fill="#252525" d="M 70.5,-0.5 C 162.5,-0.5 254.5,-0.5 346.5,-0.5C 370.459,5.29289 385.292,20.2929 391,44.5C 391.667,185.167 391.667,325.833 391,466.5C 385.319,490.68 370.486,505.68 346.5,511.5C 254.5,511.5 162.5,511.5 70.5,511.5C 54.5156,507.015 44.3489,496.681 40,480.5C 39.5,440.168 39.3333,399.835 39.5,359.5C 30.7502,359.91 22.0836,359.41 13.5,358C 6.83442,354.508 2.16775,349.341 -0.5,342.5C -0.5,337.833 -0.5,333.167 -0.5,328.5C 2.16775,321.659 6.83442,316.492 13.5,313C 22.0836,311.59 30.7502,311.09 39.5,311.5C 39.5,298.167 39.5,284.833 39.5,271.5C 30.7502,271.91 22.0836,271.41 13.5,270C 6.83442,266.508 2.16775,261.341 -0.5,254.5C -0.5,249.833 -0.5,245.167 -0.5,240.5C 2.16775,233.659 6.83442,228.492 13.5,225C 22.0836,223.59 30.7502,223.09 39.5,223.5C 39.5,210.167 39.5,196.833 39.5,183.5C 30.7502,183.91 22.0836,183.41 13.5,182C 6.83442,178.508 2.16775,173.341 -0.5,166.5C -0.5,161.833 -0.5,157.167 -0.5,152.5C 2.16775,145.659 6.83442,140.492 13.5,137C 22.0836,135.59 30.7502,135.09 39.5,135.5C 39.5,122.167 39.5,108.833 39.5,95.5C 30.7502,95.9099 22.0836,95.4099 13.5,94C 6.83442,90.5078 2.16775,85.3411 -0.5,78.5C -0.5,73.8333 -0.5,69.1667 -0.5,64.5C 2.16775,57.6589 6.83442,52.4922 13.5,49C 22.0836,47.5901 30.7502,47.0901 39.5,47.5C 37.3161,23.1603 47.6495,7.1603 70.5,-0.5 Z"/></g>
<g><path style="opacity:1" fill="#e9ac74" d="M 374.5,47.5 C 374.649,48.552 374.483,49.552 374,50.5C 365.371,39.7683 354.205,33.6016 340.5,32C 251.5,31.3333 162.5,31.3333 73.5,32C 66.7448,33.876 60.7448,37.0427 55.5,41.5C 55.4028,28.7547 61.4028,20.2547 73.5,16C 162.5,15.3333 251.5,15.3333 340.5,16C 358.771,19.1074 370.105,29.6074 374.5,47.5 Z"/></g>
<g><path style="opacity:1" fill="#dc965d" d="M 374.5,47.5 C 375.666,150.333 375.833,253.333 375,356.5C 371.491,376.009 359.991,387.509 340.5,391C 245.501,391.5 150.501,391.667 55.5,391.5C 55.5,380.833 55.5,370.167 55.5,359.5C 62.5079,359.666 69.5079,359.5 76.5,359C 92.9082,352.684 98.4082,341.184 93,324.5C 89.2289,318.064 83.7289,313.897 76.5,312C 69.5079,311.5 62.5079,311.334 55.5,311.5C 55.5,298.167 55.5,284.833 55.5,271.5C 62.5079,271.666 69.5079,271.5 76.5,271C 92.9082,264.684 98.4082,253.184 93,236.5C 89.2289,230.064 83.7289,225.897 76.5,224C 69.5079,223.5 62.5079,223.334 55.5,223.5C 55.5,210.167 55.5,196.833 55.5,183.5C 62.5079,183.666 69.5079,183.5 76.5,183C 92.9082,176.684 98.4082,165.184 93,148.5C 89.2289,142.064 83.7289,137.897 76.5,136C 69.5079,135.5 62.5079,135.334 55.5,135.5C 55.5,122.167 55.5,108.833 55.5,95.5C 62.5079,95.6663 69.5079,95.4996 76.5,95C 92.9082,88.6845 98.4082,77.1845 93,60.5C 89.2289,54.0636 83.7289,49.8969 76.5,48C 69.5079,47.5004 62.5079,47.3337 55.5,47.5C 55.5,45.5 55.5,43.5 55.5,41.5C 60.7448,37.0427 66.7448,33.876 73.5,32C 162.5,31.3333 251.5,31.3333 340.5,32C 354.205,33.6016 365.371,39.7683 374,50.5C 374.483,49.552 374.649,48.552 374.5,47.5 Z"/></g>
<g><path style="opacity:0.995" fill="#252525" d="M 511.5,71.5 C 511.5,171.5 511.5,271.5 511.5,371.5C 497.592,401.355 483.759,431.355 470,461.5C 465.667,464.167 461.333,464.167 457,461.5C 443.14,431.584 429.473,401.584 416,371.5C 415.333,271.5 415.333,171.5 416,71.5C 419.167,59 427,51.1667 439.5,48C 455.5,47.3333 471.5,47.3333 487.5,48C 500.015,51.349 508.015,59.1824 511.5,71.5 Z"/></g>
<g><path style="opacity:1" fill="#252525" d="M 287.5,159.5 C 287.544,155.91 289.211,153.41 292.5,152C 304.162,151.5 315.829,151.333 327.5,151.5C 327.5,124.833 327.5,98.1667 327.5,71.5C 316.833,71.5 306.167,71.5 295.5,71.5C 242.167,71.5 188.833,71.5 135.5,71.5C 135.5,90.1667 135.5,108.833 135.5,127.5C 135.5,135.5 135.5,143.5 135.5,151.5C 176.168,151.333 216.835,151.5 257.5,152C 261.518,152.863 263.518,155.363 263.5,159.5C 263.513,163.65 261.513,166.15 257.5,167C 213.167,167.667 168.833,167.667 124.5,167C 121.898,166.065 120.398,164.232 120,161.5C 119.333,127.833 119.333,94.1667 120,60.5C 120.465,59.0692 121.299,57.9025 122.5,57C 158.583,55.8393 194.75,55.3393 231,55.5C 266.5,55.6667 302,55.8333 337.5,56C 339.329,56.2735 340.829,57.1068 342,58.5C 343.154,75.912 343.654,93.412 343.5,111C 343.647,128.896 343.147,146.73 342,164.5C 340.829,165.893 339.329,166.727 337.5,167C 322.5,167.667 307.5,167.667 292.5,167C 289.211,165.59 287.544,163.09 287.5,159.5 Z"/></g>
<g><path style="opacity:1" fill="#b1b1b1" d="M 20.5,63.5 C 38.1698,63.3334 55.8365,63.5001 73.5,64C 79.448,66.4329 80.948,70.5996 78,76.5C 76.8289,77.8932 75.3289,78.7265 73.5,79C 55.8333,79.6667 38.1667,79.6667 20.5,79C 15.4648,75.9867 14.2981,71.8201 17,66.5C 18.1451,65.3636 19.3117,64.3636 20.5,63.5 Z"/></g>
<g><path style="opacity:1" fill="#e5e5e5" d="M 442.5,63.5 C 456.171,63.3334 469.837,63.5001 483.5,64C 488.91,65.7425 492.744,69.2425 495,74.5C 495.5,84.1609 495.666,93.8276 495.5,103.5C 474.167,103.5 452.833,103.5 431.5,103.5C 431.334,93.8276 431.5,84.1609 432,74.5C 434.357,69.6455 437.857,65.9788 442.5,63.5 Z"/></g>
<g><path style="opacity:1" fill="#fbcf87" d="M 295.5,71.5 C 296.917,84.858 294.75,97.5247 289,109.5C 283.211,117.283 275.711,122.783 266.5,126C 222.863,127.462 179.196,127.962 135.5,127.5C 135.5,108.833 135.5,90.1667 135.5,71.5C 188.833,71.5 242.167,71.5 295.5,71.5 Z"/></g>
<g><path style="opacity:1" fill="#f8ba3d" d="M 295.5,71.5 C 306.167,71.5 316.833,71.5 327.5,71.5C 327.5,98.1667 327.5,124.833 327.5,151.5C 315.829,151.333 304.162,151.5 292.5,152C 289.211,153.41 287.544,155.91 287.5,159.5C 279.5,159.5 271.5,159.5 263.5,159.5C 263.518,155.363 261.518,152.863 257.5,152C 216.835,151.5 176.168,151.333 135.5,151.5C 135.5,143.5 135.5,135.5 135.5,127.5C 179.196,127.962 222.863,127.462 266.5,126C 275.711,122.783 283.211,117.283 289,109.5C 294.75,97.5247 296.917,84.858 295.5,71.5 Z"/></g>
<g><path style="opacity:1" fill="#e44c37" d="M 431.5,119.5 C 439.5,119.5 447.5,119.5 455.5,119.5C 455.5,199.5 455.5,279.5 455.5,359.5C 447.5,359.5 439.5,359.5 431.5,359.5C 431.5,279.5 431.5,199.5 431.5,119.5 Z"/></g>
<g><path style="opacity:1" fill="#0985cc" d="M 471.5,119.5 C 479.5,119.5 487.5,119.5 495.5,119.5C 495.5,199.5 495.5,279.5 495.5,359.5C 487.5,359.5 479.5,359.5 471.5,359.5C 471.5,279.5 471.5,199.5 471.5,119.5 Z"/></g>
<g><path style="opacity:1" fill="#b1b1b1" d="M 20.5,151.5 C 38.1698,151.333 55.8365,151.5 73.5,152C 79.448,154.433 80.948,158.6 78,164.5C 76.8289,165.893 75.3289,166.727 73.5,167C 55.8333,167.667 38.1667,167.667 20.5,167C 15.4648,163.987 14.2981,159.82 17,154.5C 18.1451,153.364 19.3117,152.364 20.5,151.5 Z"/></g>
<g><path style="opacity:1" fill="#b1b1b1" d="M 20.5,239.5 C 38.1698,239.333 55.8365,239.5 73.5,240C 79.448,242.433 80.948,246.6 78,252.5C 76.8289,253.893 75.3289,254.727 73.5,255C 55.8333,255.667 38.1667,255.667 20.5,255C 15.4648,251.987 14.2981,247.82 17,242.5C 18.1451,241.364 19.3117,240.364 20.5,239.5 Z"/></g>
<g><path style="opacity:1" fill="#252525" d="M 180.5,303.5 C 214.168,303.333 247.835,303.5 281.5,304C 287.462,306.405 288.962,310.571 286,316.5C 284.829,317.893 283.329,318.727 281.5,319C 247.833,319.667 214.167,319.667 180.5,319C 173.889,313.798 173.889,308.631 180.5,303.5 Z"/></g>
<g><path style="opacity:1" fill="#b1b1b1" d="M 20.5,327.5 C 38.1698,327.333 55.8365,327.5 73.5,328C 79.448,330.433 80.948,334.6 78,340.5C 76.8289,341.893 75.3289,342.727 73.5,343C 55.8333,343.667 38.1667,343.667 20.5,343C 15.4648,339.987 14.2981,335.82 17,330.5C 18.1451,329.364 19.3117,328.364 20.5,327.5 Z"/></g>
<g><path style="opacity:1" fill="#252525" d="M 140.5,343.5 C 200.834,343.333 261.168,343.5 321.5,344C 327.462,346.405 328.962,350.571 326,356.5C 324.829,357.893 323.329,358.727 321.5,359C 261.167,359.667 200.833,359.667 140.5,359C 133.889,353.798 133.889,348.631 140.5,343.5 Z"/></g>
<g><path style="opacity:1" fill="#dcc9b9" d="M 436.5,375.5 C 454.512,375.167 472.512,375.5 490.5,376.5C 486.57,385.125 482.736,393.792 479,402.5C 468.667,403.833 458.333,403.833 448,402.5C 444.063,393.517 440.23,384.517 436.5,375.5 Z"/></g>
<g><path style="opacity:1" fill="#d08445" d="M 373.5,391.5 C 372.342,402.248 367.009,410.748 357.5,417C 353.055,419.557 348.389,421.557 343.5,423C 247.501,423.5 151.501,423.667 55.5,423.5C 55.5,418.167 55.5,412.833 55.5,407.5C 150.834,407.667 246.167,407.5 341.5,407C 354.228,405.801 364.895,400.634 373.5,391.5 Z"/></g>
<g><path style="opacity:1" fill="#494949" d="M 455.5,418.5 C 460.875,418.172 466.208,418.505 471.5,419.5C 469.103,424.627 466.436,429.627 463.5,434.5C 460.279,429.392 457.613,424.059 455.5,418.5 Z"/></g>
<g><path style="opacity:1" fill="#c2afa2" d="M 373.5,423.5 C 374.51,443.627 364.843,456.627 344.5,462.5C 343.502,454.528 343.169,446.528 343.5,438.5C 355.473,437.18 365.473,432.18 373.5,423.5 Z"/></g>
<g><path style="opacity:1" fill="#f6e6d4" d="M 55.5,439.5 C 146.167,439.5 236.833,439.5 327.5,439.5C 327.5,447.5 327.5,455.5 327.5,463.5C 236.833,463.5 146.167,463.5 55.5,463.5C 55.5,455.5 55.5,447.5 55.5,439.5 Z"/></g>
<g><path style="opacity:1" fill="#d08445" d="M 373.5,463.5 C 370.366,480.474 360.032,490.974 342.5,495C 252.833,495.667 163.167,495.667 73.5,495C 66.1184,492.453 60.7851,487.62 57.5,480.5C 152.165,479.667 246.832,479.167 341.5,479C 354.228,477.801 364.895,472.634 373.5,463.5 Z"/></g>
</svg>
